<svg width="60" height="60" viewBox="0 0 60 60" fill="none" xmlns="http://www.w3.org/2000/svg">
<g clip-path="url(#clip0)">
<path d="M52.3728 56.9491L57.3478 56.9491C57.9671 56.9509 58.5567 56.6839 58.9638 56.2171C59.3709 55.7503 59.5552 55.1298 59.4691 54.5165L53.3898 12.2033L52.3728 56.9491Z" fill="#172B58"/>
<path d="M50.339 5.08483H3.55931C1.87437 5.08483 0.508459 6.45074 0.508459 8.13568V56.9493C0.508459 58.6342 1.87437 60.0001 3.55931 60.0001H50.339C52.0239 60.0001 53.3898 58.6342 53.3898 56.9493V8.13568C53.3898 6.45074 52.0239 5.08483 50.339 5.08483Z" fill="#3462C9"/>
<path d="M49.322 11.1864V17.2881H4.57626V11.1864C4.57961 10.0645 5.48826 9.15588 6.61016 9.15253H47.2881C48.41 9.15588 49.3187 10.0645 49.322 11.1864Z" fill="#FF9900"/>
<path d="M49.322 17.2881V47.9695C49.3218 48.5114 49.1059 49.031 48.722 49.4135L42.8034 55.3322C42.4208 55.7161 41.9013 55.9319 41.3593 55.9322H6.61016C5.48826 55.9288 4.57961 55.0202 4.57626 53.8983V17.2881H49.322Z" fill="#ECF0F1"/>
<path d="M18.8136 44.7458C22.182 44.7424 24.9119 42.0126 24.9153 38.6441V30.5085C24.9153 27.1386 22.1834 24.4068 18.8136 24.4068C15.4437 24.4068 12.7119 27.1386 12.7119 30.5085V38.6441C12.7152 42.0126 15.4451 44.7424 18.8136 44.7458ZM14.7458 30.5085C14.7458 28.2619 16.567 26.4407 18.8136 26.4407C21.0601 26.4407 22.8814 28.2619 22.8814 30.5085V38.6441C22.8814 40.8907 21.0601 42.7119 18.8136 42.7119C16.567 42.7119 14.7458 40.8907 14.7458 38.6441V30.5085Z" fill="#547580"/>
<path d="M29.9999 42.7117C29.4383 42.7117 28.983 43.167 28.983 43.7287C28.983 44.2903 29.4383 44.7456 29.9999 44.7456H38.1355C38.6972 44.7456 39.1525 44.2903 39.1525 43.7287C39.1525 43.167 38.6972 42.7117 38.1355 42.7117H35.0847V25.4236C35.0846 25.0123 34.8368 24.6416 34.4569 24.4843C34.0769 24.3269 33.6396 24.4138 33.3487 24.7046L29.2809 28.7724C28.8955 29.1714 28.9011 29.8057 29.2933 30.198C29.6856 30.5903 30.3199 30.5958 30.7189 30.2104L33.0508 27.8785V42.7117H29.9999Z" fill="#547580"/>
<path d="M38.1356 47.7965H14.7457C14.1841 47.7965 13.7288 48.2518 13.7288 48.8134C13.7288 49.3751 14.1841 49.8304 14.7457 49.8304H38.1356C38.6972 49.8304 39.1525 49.3751 39.1525 48.8134C39.1525 48.2518 38.6972 47.7965 38.1356 47.7965Z" fill="#35495E"/>
<path d="M49.139 48.8134C49.0371 49.0367 48.8958 49.24 48.7221 49.4134L42.8034 55.332C42.63 55.5058 42.4267 55.647 42.2034 55.749V50.8473C42.2068 49.7254 43.1154 48.8168 44.2373 48.8134H49.139Z" fill="#D1D4D1"/>
<path d="M24.5695 5.08468H22.4441C21.4276 2.75566 18.8477 1.53466 16.4022 2.22516C13.9566 2.91566 12.3963 5.30562 12.748 7.82234C13.0997 10.3391 15.2555 12.2097 17.7966 12.2033C18.3583 12.2033 18.8136 12.6586 18.8136 13.2203C18.8136 13.7819 18.3583 14.2372 17.7966 14.2372C14.1759 14.2377 11.1316 11.5202 10.7227 7.92262C10.3137 4.32505 12.6703 0.993631 16.1988 0.18137C19.7272 -0.630891 23.3033 1.33481 24.5085 4.74908C24.5492 4.85626 24.5699 4.97001 24.5695 5.08468Z" fill="#95A5A5"/>
<path d="M43.8916 5.08468H41.7662C40.7497 2.75566 38.1698 1.53466 35.7243 2.22516C33.2787 2.91566 31.7184 5.30562 32.0701 7.82234C32.4218 10.3391 34.5775 12.2097 37.1187 12.2033C37.6803 12.2033 38.1357 12.6586 38.1357 13.2203C38.1357 13.7819 37.6803 14.2372 37.1187 14.2372C33.498 14.2377 30.4537 11.5202 30.0448 7.92262C29.6358 4.32505 31.9924 0.993631 35.5209 0.18137C39.0493 -0.630891 42.6254 1.33481 43.8306 4.74908C43.8713 4.85626 43.892 4.97001 43.8916 5.08468Z" fill="#95A5A5"/>
</g>
<defs>
<clipPath id="clip0">
<rect width="60" height="60" fill="white"/>
</clipPath>
</defs>
</svg>
